<?xml version="1.0" encoding="UTF-8" standalone="no"?>
<svg
   xmlns:dc="http://purl.org/dc/elements/1.1/"
   xmlns:cc="http://creativecommons.org/ns#"
   xmlns:rdf="http://www.w3.org/1999/02/22-rdf-syntax-ns#"
   xmlns:svg="http://www.w3.org/2000/svg"
   xmlns="http://www.w3.org/2000/svg"
   viewBox="0 0 212.84 78.466667"
   height="78.466667"
   width="212.84"
   xml:space="preserve"
   id="svg2"
   version="1.1"><metadata
     id="metadata8"><rdf:RDF><cc:Work
         rdf:about=""><dc:format>image/svg+xml</dc:format><dc:type
           rdf:resource="http://purl.org/dc/dcmitype/StillImage" /></cc:Work></rdf:RDF></metadata><defs
     id="defs6" /><g
     transform="matrix(1.3333333,0,0,-1.3333333,0,78.466667)"
     id="g10"><g
       transform="scale(0.1)"
       id="g12"><path
         id="path14"
         style="fill:#ffffff;fill-opacity:1;fill-rule:nonzero;stroke:none"
         d="m 112.555,127.277 v 424.305 c 0,6.125 5.148,11.301 11.254,11.301 h 608.515 c 6.106,0 11.254,-5.176 11.254,-11.301 V 127.277 H 112.555" /><path
         id="path16"
         style="fill:#c8c7c7;fill-opacity:1;fill-rule:nonzero;stroke:none"
         d="M 732.324,588.477 H 123.809 c -20.274,0 -36.8559,-16.602 -36.8559,-36.895 V 101.68 H 769.18 v 449.902 c 0,20.293 -16.582,36.895 -36.856,36.895 z m -14.34,-51.2 V 152.883 H 138.148 v 384.394 h 579.836" /><path
         id="path18"
         style="fill:#c8c7c7;fill-opacity:1;fill-rule:nonzero;stroke:none"
         d="M 856.133,34.7852 C 856.133,15.5859 840.527,0 821.328,0 H 34.7656 C 15.5664,0 0,15.5859 0,34.7852 v 0 C 0,54.0039 15.5664,69.5898 34.7656,69.5898 H 821.328 c 19.199,0 34.805,-15.5859 34.805,-34.8046 v 0" /><path
         id="path20"
         style="fill:#ffffff;fill-opacity:1;fill-rule:nonzero;stroke:none"
         d="M 490.918,23.418 H 365.215 V 43.2617 H 490.918 V 23.418" /><path
         id="path22"
         style="fill:#ffffff;fill-opacity:1;fill-rule:nonzero;stroke:none"
         d="M 1596.34,152.813 H 138.125 v 384.609 h 579.68 V 525.645 H 1596.34 V 152.813" /><path
         id="path24"
         style="fill:#f22027;fill-opacity:1;fill-rule:nonzero;stroke:none"
         d="m 197.129,314.801 v 33.535 h 134.68 c 7.101,0 12.218,0.996 15.339,2.996 3.122,1.992 4.676,6.016 4.676,12.09 v 9.621 c 0,5.547 -1.554,9.492 -4.676,11.824 -3.121,2.344 -8.148,3.516 -15.082,3.516 h -84.5 c -9.878,0 -18.07,0.91 -24.57,2.726 -6.496,1.825 -11.656,4.59 -15.469,8.321 -3.816,3.73 -6.457,8.406 -7.925,14.043 -1.477,5.625 -2.215,12.254 -2.215,19.89 v 8.84 c 0,9.004 0.953,16.719 2.863,23.133 1.902,6.418 4.848,11.574 8.836,15.469 3.984,3.906 9.184,6.769 15.602,8.586 6.41,1.816 14.039,2.734 22.878,2.734 h 55.122 v -33.547 h -51.481 c -6.07,0 -10.527,-1.172 -13.391,-3.504 -2.859,-2.344 -4.293,-7.07 -4.293,-14.172 v -5.722 c 0,-5.547 1.305,-9.492 3.903,-11.825 2.601,-2.343 7.105,-3.515 13.519,-3.515 h 82.942 c 9.883,0 18.242,-0.82 25.093,-2.473 6.84,-1.648 12.43,-4.285 16.766,-7.929 4.332,-3.641 7.453,-8.321 9.359,-14.043 1.907,-5.711 2.864,-12.567 2.864,-20.536 v -14.043 c 0,-8.32 -0.957,-15.382 -2.864,-21.183 -1.906,-5.809 -5.027,-10.535 -9.359,-14.168 -4.336,-3.645 -9.926,-6.34 -16.766,-8.067 -6.851,-1.73 -15.21,-2.597 -25.093,-2.597 H 197.129" /><path
         id="path26"
         style="fill:#231f20;fill-opacity:1;fill-rule:nonzero;stroke:none"
         d="m 517.965,314.801 c -13.004,0 -23.832,1.082 -32.5,3.25 -8.672,2.168 -15.602,5.625 -20.801,10.402 -5.199,4.766 -8.887,11.004 -11.051,18.719 -2.168,7.707 -3.254,17.199 -3.254,28.469 v 55.644 c 0,11.082 1.086,20.535 3.254,28.34 2.164,7.793 5.852,14.07 11.051,18.848 5.199,4.765 12.129,8.23 20.801,10.398 8.668,2.16 19.496,3.254 32.5,3.254 h 43.68 v -33.547 h -43.68 c -5.723,0 -10.402,-0.476 -14.043,-1.426 -3.641,-0.957 -6.543,-2.468 -8.707,-4.55 -2.172,-2.079 -3.645,-4.852 -4.422,-8.321 -0.777,-3.476 -1.168,-7.801 -1.168,-12.996 V 419.32 H 640.684 V 387.855 H 489.625 v -12.48 c 0,-5.371 0.391,-9.793 1.168,-13.25 0.777,-3.477 2.211,-6.242 4.289,-8.32 2.082,-2.082 4.981,-3.516 8.711,-4.297 3.727,-0.781 8.449,-1.172 14.172,-1.172 H 641.723 V 314.801 H 517.965" /><path
         id="path28"
         style="fill:#231f20;fill-opacity:1;fill-rule:nonzero;stroke:none"
         d="m 893.398,310.902 c -4.16,0 -8.015,0.645 -11.574,1.946 -3.554,1.297 -6.883,3.425 -10,6.375 L 742.598,440.902 V 314.801 h -36.66 v 164.844 c 0,5.535 1.953,9.656 5.847,12.343 3.903,2.684 8.977,4.032 15.211,4.032 4.508,0 8.234,-0.606 11.184,-1.817 2.941,-1.219 5.371,-2.781 7.281,-4.687 L 875.715,363.941 v 128.184 h 37.437 V 327.281 c 0,-5.898 -1.812,-10.097 -5.449,-12.609 -3.648,-2.508 -8.418,-3.77 -14.305,-3.77" /><path
         id="path30"
         style="fill:#231f20;fill-opacity:1;fill-rule:nonzero;stroke:none"
         d="m 982.59,314.801 v 177.324 h 39.51 V 314.801 h -39.51" /><path
         id="path32"
         style="fill:#231f20;fill-opacity:1;fill-rule:nonzero;stroke:none"
         d="m 1254.28,429.457 c 0,5.547 -0.48,10.148 -1.44,13.781 -0.95,3.641 -2.56,6.59 -4.8,8.836 -2.26,2.258 -5.33,3.821 -9.23,4.688 -3.9,0.859 -8.71,1.301 -14.43,1.301 h -63.96 c -6.24,0 -11.31,-0.442 -15.21,-1.301 -3.9,-0.867 -6.98,-2.43 -9.23,-4.688 -2.26,-2.246 -3.77,-5.195 -4.55,-8.836 -0.78,-3.633 -1.17,-8.234 -1.17,-13.781 v -52.254 c 0,-5.723 0.39,-10.449 1.17,-14.172 0.78,-3.73 2.29,-6.679 4.55,-8.836 2.25,-2.179 5.33,-3.644 9.23,-4.425 3.9,-0.782 8.97,-1.172 15.21,-1.172 h 63.96 c 5.72,0 10.53,0.39 14.43,1.172 3.9,0.781 6.97,2.246 9.23,4.425 2.24,2.157 3.85,5.106 4.8,8.836 0.96,3.723 1.44,8.449 1.44,14.172 z M 1158.6,314.801 c -13,0 -23.83,1.082 -32.5,3.25 -8.67,2.168 -15.6,5.625 -20.8,10.402 -5.2,4.766 -8.88,11.004 -11.05,18.719 -2.17,7.707 -3.25,17.199 -3.25,28.469 v 55.644 c 0,11.082 1.08,20.535 3.25,28.34 2.17,7.793 5.85,14.07 11.05,18.848 5.2,4.765 12.13,8.23 20.8,10.398 8.67,2.16 19.5,3.254 32.5,3.254 h 67.34 c 13.17,0 24.09,-1.094 32.76,-3.254 8.66,-2.168 15.6,-5.633 20.8,-10.398 5.2,-4.778 8.88,-11.055 11.05,-18.848 2.16,-7.805 3.25,-17.258 3.25,-28.34 v -55.644 c 0,-11.27 -1.09,-20.762 -3.25,-28.469 -2.17,-7.715 -5.85,-13.953 -11.05,-18.719 -5.2,-4.777 -12.14,-8.234 -20.8,-10.402 -8.67,-2.168 -19.59,-3.25 -32.76,-3.25 h -67.34" /><path
         id="path34"
         style="fill:#231f20;fill-opacity:1;fill-rule:nonzero;stroke:none"
         d="m 1531.17,436.742 c 0,4.68 -0.52,8.488 -1.56,11.438 -1.05,2.949 -2.77,5.203 -5.21,6.758 -2.42,1.562 -5.8,2.605 -10.13,3.125 -4.34,0.515 -9.71,0.781 -16.12,0.781 h -96.98 v -54.082 h 96.98 c 6.41,0 11.74,0.261 15.99,0.781 4.25,0.516 7.63,1.562 10.15,3.113 2.5,1.563 4.27,3.809 5.32,6.758 1.04,2.949 1.56,6.848 1.56,11.711 z m -26.26,-121.941 -103.74,64.48 v -64.48 h -39.27 v 177.324 h 138.85 c 12.48,0 23.15,-0.781 31.97,-2.344 8.85,-1.562 16.09,-4.336 21.72,-8.32 5.63,-3.996 9.75,-9.453 12.35,-16.379 2.59,-6.934 3.9,-15.691 3.9,-26.258 v -12.226 c 0,-10.227 -1.38,-18.672 -4.16,-25.352 -2.77,-6.672 -7.07,-11.953 -12.87,-15.859 -5.81,-3.899 -13.12,-6.621 -21.97,-8.184 -8.84,-1.562 -19.33,-2.344 -31.47,-2.344 h -31.19 l 104.01,-60.058 h -68.13" /><path
         id="path36"
         style="fill:#231f20;fill-opacity:1;fill-rule:nonzero;stroke:none"
         d="m 274.707,284.84 c 3.301,0 5.723,-2.531 5.723,-5.723 0,-2.969 -2.422,-5.722 -5.723,-5.722 h -30.254 v -70.844 c 0,-3.203 -2.527,-5.723 -5.609,-5.723 -3.192,0 -5.723,2.52 -5.723,5.723 v 70.844 h -30.363 c -3.192,0 -5.61,2.753 -5.61,5.722 0,3.192 2.418,5.723 5.61,5.723 h 71.949" /><path
         id="path38"
         style="fill:#231f20;fill-opacity:1;fill-rule:nonzero;stroke:none"
         d="m 274.477,229.504 h 45.878 v 6.269 c 0,4.063 -3.3,7.364 -7.371,7.364 h -31.132 c -4.075,0 -7.375,-3.301 -7.375,-7.364 z m 38.507,24.41 c 10.008,0 18.262,-8.141 18.262,-18.258 v -11.543 c 0,-3.086 -2.422,-5.508 -5.5,-5.508 h -51.269 v -3.632 c 0,-3.946 3.3,-7.364 7.375,-7.364 h 42.027 c 2.855,0 5.496,-2.304 5.496,-5.39 0,-3.086 -2.641,-5.508 -5.496,-5.508 h -41.922 c -10.121,0 -18.262,8.144 -18.262,18.262 v 20.683 c 0,10.117 8.141,18.258 18.262,18.258 h 31.027" /><path
         id="path40"
         style="fill:#231f20;fill-opacity:1;fill-rule:nonzero;stroke:none"
         d="m 405.602,253.914 c 2.859,0 5.503,-2.418 5.503,-5.484 0,-2.871 -2.644,-5.293 -5.503,-5.293 H 362.59 c -3.961,0 -7.375,-3.301 -7.375,-7.481 v -20.449 c 0,-4.18 3.301,-7.48 7.375,-7.48 h 42.793 c 3.078,0 5.5,-2.422 5.5,-5.508 0,-3.086 -2.422,-5.508 -5.5,-5.508 h -42.469 c -10.226,0 -18.48,8.262 -18.48,18.496 v 20.449 c 0,10.235 8.254,18.258 18.48,18.258 h 42.688" /><path
         id="path42"
         style="fill:#231f20;fill-opacity:1;fill-rule:nonzero;stroke:none"
         d="m 433.422,202.102 c 0,-2.969 -2.309,-5.391 -5.277,-5.391 -3.082,0 -5.504,2.422 -5.504,5.391 v 74.593 c 0,2.969 2.422,5.391 5.504,5.391 2.968,0 5.277,-2.422 5.277,-5.391 v -24.203 c 1.984,0.781 4.84,1.422 7.152,1.422 h 29.371 c 10.016,0 17.938,-8.141 17.938,-18.023 v -33.789 c 0,-2.969 -2.313,-5.391 -5.395,-5.391 -2.968,0 -5.386,2.422 -5.386,5.391 v 33.789 c 0,3.945 -3.192,7.148 -7.157,7.148 h -29.371 c -3.965,0 -7.152,-3.203 -7.152,-7.148 v -33.789" /><path
         id="path44"
         style="fill:#231f20;fill-opacity:1;fill-rule:nonzero;stroke:none"
         d="m 545.195,253.914 c 10.231,0 18.368,-8.238 18.368,-18.355 v -33.34 c 0,-3.086 -2.415,-5.508 -5.497,-5.508 -2.972,0 -5.39,2.422 -5.39,5.508 v 33.34 c 0,4.062 -3.301,7.363 -7.481,7.363 h -33.449 v -40.703 c 0,-3.086 -2.641,-5.508 -5.496,-5.508 -3.082,0 -5.504,2.422 -5.504,5.508 v 46.211 c 0,3.066 2.313,5.39 5.391,5.484 h 39.058" /><path
         id="path46"
         style="fill:#231f20;fill-opacity:1;fill-rule:nonzero;stroke:none"
         d="m 587.426,215.207 c 0,-4.086 3.301,-7.383 7.262,-7.383 h 37.953 c 4.074,0 7.375,3.297 7.375,7.383 v 20.566 c 0,4.063 -3.301,7.364 -7.375,7.364 h -37.953 c -3.961,0 -7.262,-3.301 -7.262,-7.364 z m 45.215,38.707 c 10.23,0 18.48,-8.238 18.48,-18.355 v -20.352 c 0,-10.137 -8.25,-18.379 -18.48,-18.379 h -37.953 c -10.122,0 -18.375,8.242 -18.375,18.379 v 20.352 c 0,10.117 8.253,18.355 18.375,18.355 h 37.953" /><path
         id="path48"
         style="fill:#231f20;fill-opacity:1;fill-rule:nonzero;stroke:none"
         d="m 663.98,276.586 c 0,3.078 2.422,5.5 5.61,5.5 2.859,0 5.504,-2.422 5.504,-5.5 V 215.09 c 0,-4.063 3.301,-7.363 7.261,-7.363 h 10.008 c 2.864,0 5.504,-2.539 5.504,-5.508 0,-2.871 -2.64,-5.508 -5.504,-5.508 h -10.008 c -10.125,0 -18.375,8.262 -18.375,18.379 v 61.496" /><path
         id="path50"
         style="fill:#231f20;fill-opacity:1;fill-rule:nonzero;stroke:none"
         d="m 717.773,215.207 c 0,-4.086 3.301,-7.383 7.262,-7.383 h 37.953 c 4.075,0 7.371,3.297 7.371,7.383 v 20.566 c 0,4.063 -3.296,7.364 -7.371,7.364 h -37.953 c -3.961,0 -7.262,-3.301 -7.262,-7.364 z m 45.215,38.707 c 10.231,0 18.481,-8.238 18.481,-18.355 v -20.352 c 0,-10.137 -8.25,-18.379 -18.481,-18.379 h -37.953 c -10.125,0 -18.375,8.242 -18.375,18.379 v 20.352 c 0,10.117 8.25,18.355 18.375,18.355 h 37.953" /><path
         id="path52"
         style="fill:#231f20;fill-opacity:1;fill-rule:nonzero;stroke:none"
         d="m 851.316,207.609 v 28.282 c 0,4.062 -3.418,7.246 -7.261,7.246 h -31.356 c -4.07,0 -7.371,-3.301 -7.371,-7.481 V 215.09 c 0,-4.18 3.301,-7.481 7.371,-7.481 z M 804.23,168.117 c -3.082,0 -5.503,2.422 -5.503,5.488 0,3.086 2.421,5.508 5.503,5.508 h 39.825 c 3.965,0 7.261,3.418 7.261,7.364 v 10.234 h -38.617 c -10.121,0 -18.375,8.144 -18.375,18.379 v 20.351 c 0,10.235 8.254,18.473 18.375,18.473 h 31.356 c 10.117,0 18.379,-8.238 18.379,-18.473 v -48.964 c 0,-10.118 -8.262,-18.36 -18.379,-18.36 H 804.23" /><path
         id="path54"
         style="fill:#231f20;fill-opacity:1;fill-rule:nonzero;stroke:none"
         d="m 943.723,187.141 c 0,-10.235 -8.262,-18.36 -18.379,-18.36 h -37.949 c -3.196,0 -5.618,2.403 -5.618,5.391 0,3.183 2.422,5.605 5.618,5.605 h 37.949 c 3.965,0 7.261,3.301 7.261,7.364 v 11.113 c -2.085,-0.883 -4.839,-1.543 -7.261,-1.543 h -29.922 c -10.234,0 -18.379,8.262 -18.379,18.379 v 33.437 c 0,3.086 2.312,5.508 5.508,5.508 2.847,0 5.496,-2.422 5.496,-5.508 V 215.09 c 0,-3.969 3.301,-7.363 7.375,-7.363 h 29.922 c 3.965,0 7.261,3.394 7.261,7.363 v 33.437 c 0,3.086 2.422,5.508 5.61,5.508 2.859,0 5.508,-2.422 5.508,-5.508 v -61.386" /><path
         id="path56"
         style="fill:#231f20;fill-opacity:1;fill-rule:nonzero;stroke:none"
         d="m 1067.69,284.723 c 3.2,0 5.72,-2.532 5.72,-5.715 0,-2.969 -2.52,-5.723 -5.72,-5.723 h -52.48 c -4.28,0 -7.7,-3.293 -7.7,-7.472 v -11.899 c 0,-4.059 3.42,-7.476 7.7,-7.476 h 39.39 c 10.34,0 18.81,-8.458 18.81,-19.024 v -11.777 c 0,-10.449 -8.47,-18.926 -18.81,-18.926 h -52.7 c -3.189,0 -5.611,2.535 -5.611,5.723 0,3.086 2.422,5.605 5.611,5.605 h 52.7 c 4.07,0 7.48,3.418 7.48,7.598 v 11.777 c 0,4.18 -3.41,7.578 -7.48,7.578 h -39.39 c -10.45,0 -18.921,8.477 -18.921,18.922 v 11.899 c 0,10.441 8.471,18.91 18.921,18.91 h 52.48" /><path
         id="path58"
         style="fill:#231f20;fill-opacity:1;fill-rule:nonzero;stroke:none"
         d="m 1102,229.504 h 45.88 v 6.269 c 0,4.063 -3.3,7.364 -7.37,7.364 h -31.13 c -4.08,0 -7.38,-3.301 -7.38,-7.364 z m 38.51,24.41 c 10.01,0 18.26,-8.141 18.26,-18.258 v -11.543 c 0,-3.086 -2.41,-5.508 -5.5,-5.508 H 1102 v -3.632 c 0,-3.946 3.3,-7.364 7.38,-7.364 h 42.02 c 2.86,0 5.5,-2.304 5.5,-5.39 0,-3.086 -2.64,-5.508 -5.5,-5.508 h -41.92 c -10.11,0 -18.26,8.144 -18.26,18.262 v 20.683 c 0,10.117 8.15,18.258 18.26,18.258 h 31.03" /><path
         id="path60"
         style="fill:#231f20;fill-opacity:1;fill-rule:nonzero;stroke:none"
         d="m 1216.85,253.914 c 9.9,0 17.82,-8.023 17.82,-17.809 0,-3.085 -2.42,-5.39 -5.39,-5.39 -2.86,0 -5.29,2.305 -5.29,5.39 0,3.848 -3.3,7.032 -7.14,7.032 h -27.07 c -3.85,0 -7.04,-3.184 -7.04,-7.032 v -34.003 c 0,-2.969 -2.42,-5.391 -5.39,-5.391 -2.97,0 -5.39,2.422 -5.39,5.391 v 34.003 c 0,9.786 8.03,17.809 17.82,17.809 h 27.07" /><path
         id="path62"
         style="fill:#231f20;fill-opacity:1;fill-rule:nonzero;stroke:none"
         d="m 1303.42,254.465 c 0.88,0 1.86,-0.219 2.74,-0.645 1.76,-0.996 2.87,-2.871 2.87,-4.843 0,-0.879 -0.22,-1.875 -0.78,-2.754 l -25.74,-46.641 c -1.09,-1.758 -2.85,-2.871 -4.84,-2.871 h -5.49 c -1.99,0 -3.75,1.113 -4.74,2.871 l -26.18,46.641 c -0.45,0.879 -0.66,1.757 -0.66,2.636 0,1.993 0.99,3.848 2.75,4.961 0.76,0.426 1.76,0.645 2.64,0.645 1.98,0 3.96,-0.977 4.95,-2.852 l 23.87,-42.793 c 0.11,0.332 0.34,0.547 0.55,0.996 2.42,4.278 8.48,15.055 23.32,41.797 1,1.875 2.76,2.852 4.74,2.852" /><path
         id="path64"
         style="fill:#231f20;fill-opacity:1;fill-rule:nonzero;stroke:none"
         d="m 1331.9,248.527 v -46.308 c 0,-3.086 -2.64,-5.508 -5.5,-5.508 -3.19,0 -5.61,2.422 -5.61,5.508 v 46.308 c 0,2.969 2.42,5.387 5.61,5.387 2.86,0 5.5,-2.418 5.5,-5.387 z m -11.11,19.375 c 0,3.071 2.42,5.493 5.61,5.493 2.86,0 5.5,-2.422 5.5,-5.493 v -3.535 c 0,-2.969 -2.64,-5.488 -5.5,-5.488 -3.19,0 -5.61,2.519 -5.61,5.488 v 3.535" /><path
         id="path66"
         style="fill:#231f20;fill-opacity:1;fill-rule:nonzero;stroke:none"
         d="m 1406.92,253.914 c 2.87,0 5.51,-2.418 5.51,-5.484 0,-2.871 -2.64,-5.293 -5.51,-5.293 h -43 c -3.97,0 -7.39,-3.301 -7.39,-7.481 v -20.449 c 0,-4.18 3.3,-7.48 7.39,-7.48 h 42.79 c 3.08,0 5.5,-2.422 5.5,-5.508 0,-3.086 -2.42,-5.508 -5.5,-5.508 h -42.47 c -10.23,0 -18.49,8.262 -18.49,18.496 v 20.449 c 0,10.235 8.26,18.258 18.49,18.258 h 42.68" /><path
         id="path68"
         style="fill:#231f20;fill-opacity:1;fill-rule:nonzero;stroke:none"
         d="m 1434.75,229.504 h 45.88 v 6.269 c 0,4.063 -3.31,7.364 -7.38,7.364 h -31.13 c -4.07,0 -7.37,-3.301 -7.37,-7.364 z m 38.5,24.41 c 10.01,0 18.26,-8.141 18.26,-18.258 v -11.543 c 0,-3.086 -2.42,-5.508 -5.49,-5.508 h -51.27 v -3.632 c 0,-3.946 3.3,-7.364 7.37,-7.364 h 42.03 c 2.85,0 5.49,-2.304 5.49,-5.39 0,-3.086 -2.64,-5.508 -5.49,-5.508 h -41.92 c -10.13,0 -18.27,8.144 -18.27,18.262 v 20.683 c 0,10.117 8.14,18.258 18.27,18.258 h 31.02" /><path
         id="path70"
         style="fill:#231f20;fill-opacity:1;fill-rule:nonzero;stroke:none"
         d="m 1565.32,253.914 c 2.87,0 5.51,-2.516 5.51,-5.484 0,-2.871 -2.64,-5.293 -5.51,-5.293 h -43.34 c -4.4,0 -7.37,-3.067 -7.37,-6.27 0,-3.183 2.97,-6.054 7.37,-6.054 h 31.14 c 10.56,0 18.7,-7.481 18.7,-16.934 0,-9.356 -8.14,-17.168 -18.7,-17.168 h -43.79 c -2.97,0 -5.39,2.422 -5.39,5.508 0,3.086 2.42,5.39 5.39,5.39 h 43.79 c 4.39,0 7.58,2.969 7.58,6.27 0,3.184 -3.19,6.055 -7.58,6.055 h -31.14 c -10.56,0 -18.26,7.578 -18.26,16.933 0,9.473 7.7,17.047 18.26,17.047 h 43.34" /></g></g></svg>
